<svg width="48" height="48" viewBox="0 0 48 48" fill="none" xmlns="http://www.w3.org/2000/svg">
<path d="M41.8399 4.76C39.5946 4.25713 37.3009 4.00227 34.9999 4C32.8269 3.86202 30.648 4.15499 28.5886 4.86205C26.5292 5.56912 24.6299 6.67632 22.9999 8.12C20.8532 10.2667 18.7266 12.4067 16.6199 14.54C14.1999 14.28 8.45992 14.14 4.61992 18.02C4.24741 18.3947 4.03833 18.9016 4.03833 19.43C4.03833 19.9584 4.24741 20.4653 4.61992 20.84L27.2199 43.48C27.5946 43.8525 28.1015 44.0616 28.6299 44.0616C29.1583 44.0616 29.6652 43.8525 30.0399 43.48C33.9399 39.48 33.8199 33.84 33.5799 31.48L39.9999 25.08C46.3799 18.7 43.4799 6.72 43.3599 6.22C43.2676 5.85927 43.0764 5.53148 42.8078 5.27353C42.5393 5.01559 42.2041 4.83773 41.8399 4.76V4.76ZM37.1199 22.26L29.9999 29.34C29.7693 29.5728 29.5995 29.8588 29.5053 30.1726C29.4112 30.4865 29.3956 30.8187 29.4599 31.14C29.892 33.8156 29.5159 36.5593 28.3799 39.02L9.03992 19.64C11.5396 18.4895 14.3339 18.1402 17.0399 18.64C17.3601 18.6817 17.6855 18.6452 17.9886 18.5338C18.2916 18.4223 18.5631 18.2392 18.7799 18C18.7799 18 21.5799 15.1 25.7999 10.88C28.3948 8.79623 31.6801 7.76779 34.9999 8C36.5615 8.00773 38.1199 8.1415 39.6599 8.4C40.1399 11.26 40.8999 18.48 37.1199 22.26V22.26Z" fill="white"/>
<path d="M31.46 20.6C33.6691 20.6 35.46 18.8091 35.46 16.6C35.46 14.3909 33.6691 12.6 31.46 12.6C29.2508 12.6 27.46 14.3909 27.46 16.6C27.46 18.8091 29.2508 20.6 31.46 20.6Z" fill="white"/>
<path d="M10 32C6 34 6 42 6 42C9.70214 41.8944 13.2463 40.4767 16 38L10 32Z" fill="white"/>
</svg>
