<svg width="48" height="48" viewBox="0 0 48 48" fill="none" xmlns="http://www.w3.org/2000/svg">
<path d="M38 16H34V22H28V26H34V32H38V26H44V22H38V16ZM8 16C7.97537 17.0573 8.16546 18.1086 8.55878 19.0904C8.9521 20.0721 9.54047 20.9638 10.2883 21.7117C11.0361 22.4595 11.9279 23.0479 12.9096 23.4412C13.8914 23.8345 14.9427 24.0246 16 24C17.0573 24.0246 18.1086 23.8345 19.0904 23.4412C20.0721 23.0479 20.9639 22.4595 21.7117 21.7117C22.4595 20.9638 23.0479 20.0721 23.4412 19.0904C23.8345 18.1086 24.0246 17.0573 24 16C24.0246 14.9427 23.8345 13.8914 23.4412 12.9096C23.0479 11.9279 22.4595 11.0361 21.7117 10.2883C20.9639 9.54046 20.0721 8.95209 19.0904 8.55877C18.1086 8.16545 17.0573 7.97535 16 7.99998C14.9427 7.97535 13.8914 8.16545 12.9096 8.55877C11.9279 8.95209 11.0361 9.54046 10.2883 10.2883C9.54047 11.0361 8.9521 11.9279 8.55878 12.9096C8.16546 13.8914 7.97537 14.9427 8 16ZM20 16C20.0257 16.5321 19.9399 17.0637 19.748 17.5606C19.556 18.0576 19.2623 18.5089 18.8856 18.8856C18.5089 19.2623 18.0576 19.556 17.5606 19.7479C17.0637 19.9399 16.5321 20.0257 16 20C15.4679 20.0257 14.9363 19.9399 14.4394 19.7479C13.9424 19.556 13.4911 19.2623 13.1144 18.8856C12.7377 18.5089 12.444 18.0576 12.252 17.5606C12.0601 17.0637 11.9743 16.5321 12 16C11.9743 15.4679 12.0601 14.9363 12.252 14.4393C12.444 13.9424 12.7377 13.4911 13.1144 13.1144C13.4911 12.7377 13.9424 12.444 14.4394 12.252C14.9363 12.0601 15.4679 11.9743 16 12C16.5321 11.9743 17.0637 12.0601 17.5606 12.252C18.0576 12.444 18.5089 12.7377 18.8856 13.1144C19.2623 13.4911 19.556 13.9424 19.748 14.4393C19.9399 14.9363 20.0257 15.4679 20 16V16ZM8 36C8 34.4087 8.63214 32.8826 9.75736 31.7573C10.8826 30.6321 12.4087 30 14 30H18C19.5913 30 21.1174 30.6321 22.2426 31.7573C23.3679 32.8826 24 34.4087 24 36V38H28V36C28 34.6868 27.7413 33.3864 27.2388 32.1731C26.7362 30.9599 25.9997 29.8575 25.0711 28.9289C24.1425 28.0003 23.0401 27.2637 21.8268 26.7612C20.6136 26.2586 19.3132 26 18 26H14C11.3478 26 8.8043 27.0536 6.92893 28.9289C5.05357 30.8043 4 33.3478 4 36V38H8V36Z" fill="white"/>
</svg>
