<svg width="48" height="48" viewBox="0 0 48 48" fill="none" xmlns="http://www.w3.org/2000/svg">
<path d="M24 4C12.972 4 4 12.972 4 24C4 35.028 12.972 44 24 44C35.028 44 44 35.028 44 24C44 12.972 35.028 4 24 4ZM24 40C15.178 40 8 32.822 8 24C8 15.178 15.178 8 24 8C32.822 8 40 15.178 40 24C40 32.822 32.822 40 24 40Z" fill="white"/>
<path d="M17 24C18.6569 24 20 22.6569 20 21C20 19.3431 18.6569 18 17 18C15.3431 18 14 19.3431 14 21C14 22.6569 15.3431 24 17 24Z" fill="white"/>
<path d="M30.986 23.972C32.6351 23.972 33.972 22.6351 33.972 20.986C33.972 19.3369 32.6351 18 30.986 18C29.3369 18 28 19.3369 28 20.986C28 22.6351 29.3369 23.972 30.986 23.972Z" fill="white"/>
<path d="M24 36C32 36 34 28 34 28H14C14 28 16 36 24 36Z" fill="white"/>
</svg>
