<svg width="36" height="36" viewBox="0 0 36 36" fill="none" xmlns="http://www.w3.org/2000/svg">
<path d="M34.3636 0H1.63636C0.732655 0 0 0.732655 0 1.63636V27.8423C0 28.746 0.732655 29.4787 1.63636 29.4787H16.3623V32.7273H10.9084C10.0047 32.7273 9.27207 33.4599 9.27207 34.3636C9.27207 35.2673 10.0047 36 10.9084 36H25.0905C25.9942 36 26.7268 35.2673 26.7268 34.3636C26.7268 33.4599 25.9942 32.7273 25.0905 32.7273H19.6351V29.4787H34.3636C35.2673 29.4787 36 28.746 36 27.8423V1.63636C36 0.732655 35.2673 0 34.3636 0ZM32.7273 3.27273V19.6605H26.1819V10.3877C26.1819 9.48404 25.4493 8.75138 24.5456 8.75138C23.6419 8.75138 22.9092 9.48404 22.9092 10.3877V19.6605H19.6365V11.4787C19.6365 10.5749 18.9038 9.84229 18.0001 9.84229C17.0964 9.84229 16.3637 10.5749 16.3637 11.4787V19.6605H13.091V14.7514C13.091 13.8477 12.3584 13.115 11.4547 13.115C10.5509 13.115 9.81829 13.8477 9.81829 14.7514V19.6605H3.27273V3.27273H32.7273ZM3.27273 26.2059V22.9332H32.7273V26.2059H3.27273Z" fill="white"/>
</svg>
