<svg width="36" height="34" viewBox="0 0 36 34" fill="none" xmlns="http://www.w3.org/2000/svg">
<path d="M35.2993 8.5455L18.5668 0.179319C18.2101 0.000773795 17.7899 0.000773795 17.4331 0.179319L0.700727 8.5455C0.271273 8.76029 0 9.19908 0 9.67932V32.6863C0 33.3863 0.567515 33.954 1.26764 33.954H5.45079C6.15079 33.954 6.71842 33.3865 6.71842 32.6863V13.0385H29.2818V32.6863C29.2818 33.3863 29.8493 33.954 30.5495 33.954H34.7326C35.4326 33.954 36.0002 33.3865 36.0002 32.6863V9.67932C36 9.19908 35.7287 8.76029 35.2993 8.5455ZM33.4648 31.4187H31.817V11.7708C31.817 11.0708 31.2495 10.5032 30.5493 10.5032H5.45067C4.75067 10.5032 4.18303 11.0707 4.18303 11.7708V31.4187H2.53515V10.4627L18 2.73035L33.4648 10.4627V31.4187Z" fill="white"/>
<path d="M26.3657 15.0664H17.9995C17.5095 15.0664 17.1123 15.4636 17.1123 15.9537V23.4326H9.63337C9.14331 23.4326 8.74609 23.8298 8.74609 24.3199V32.686C8.74609 33.1761 9.14331 33.5733 9.63337 33.5733H26.3657C26.8558 33.5733 27.253 33.1761 27.253 32.686V15.9538C27.2531 15.4636 26.8558 15.0664 26.3657 15.0664ZM18.8868 26.4623L20.9277 28.5031L18.8868 30.544V26.4623ZM17.1123 30.5439L15.0714 28.503L17.1123 26.4622V30.5439ZM20.1419 25.2073H24.2234L22.1826 27.2481L20.1419 25.2073ZM20.1419 23.4326L22.1827 21.3917L24.2235 23.4326H20.1419ZM25.4785 22.1777L23.4377 20.1368L25.4785 18.096V22.1777ZM22.1827 18.8819L20.1419 16.8411H24.2234L22.1827 18.8819ZM20.9277 20.1368L18.8868 22.1777V18.0961L20.9277 20.1368ZM13.8164 27.2481L11.7755 25.2073H15.8571L13.8164 27.2481ZM12.5615 28.503L10.5206 30.5439V26.4623L12.5615 28.503ZM13.8164 29.758L15.8572 31.7989H11.7757L13.8164 29.758ZM22.1826 29.758L24.2234 31.7989H20.1419L22.1826 29.758ZM23.4376 28.503L25.4785 26.4622V30.5437L23.4376 28.503Z" fill="white"/>
</svg>
