<svg width="36" height="36" viewBox="0 0 36 36" fill="none" xmlns="http://www.w3.org/2000/svg">
<path d="M35.5601 10.8181L25.1818 0.439848C24.5953 -0.146616 23.6459 -0.146616 23.0609 0.439848L14.5501 8.94916C12.7891 8.70617 10.9397 9.23863 9.5897 10.5902L7.05478 13.1236C4.76433 15.4126 4.76433 19.1385 7.05478 21.4289L8.29977 22.6739L4.79273 26.1808C4.20774 26.7658 4.20774 27.7152 4.79273 28.3017L5.1857 28.6932L0.439848 33.4391C-0.146616 34.0256 -0.146616 34.9736 0.439848 35.56C0.732342 35.8525 1.11631 35.9996 1.50035 35.9996C1.88432 35.9996 2.26836 35.8525 2.56085 35.56L7.30677 30.8141L7.69826 31.2071C7.98028 31.4891 8.36123 31.6466 8.75876 31.6466C9.15623 31.6466 9.53872 31.4891 9.81926 31.2071L13.3262 27.7002L14.5712 28.9452C15.7172 30.0912 17.2201 30.6627 18.7231 30.6627C20.2275 30.6627 21.7305 30.0912 22.875 28.9452L25.41 26.4103C26.7614 25.0603 27.2939 23.2108 27.0509 21.4499L35.5603 12.9391C36.1466 12.354 36.1466 11.4046 35.5601 10.8181ZM21.4394 9.43965L22.9394 7.93971C23.5258 7.35325 24.4738 7.35325 25.0603 7.93971C25.6468 8.52617 25.6468 9.47418 25.0603 10.0606L23.5604 11.5606C23.2679 11.8531 22.8839 12.0001 22.4999 12.0001C22.1158 12.0001 21.7318 11.8531 21.4394 11.5606C20.8529 10.9741 20.8529 10.0261 21.4394 9.43965ZM23.2889 24.2893L20.754 26.8243C19.6335 27.9447 17.8125 27.9433 16.692 26.8243L14.3881 24.5218C14.3881 24.5203 14.3881 24.5203 14.3866 24.5188L11.4811 21.6134C11.4797 21.6119 11.4797 21.6119 11.4781 21.6119L9.17564 19.3079C8.05516 18.1875 8.05516 16.365 9.17564 15.246L11.7106 12.7111C12.8296 11.5921 14.652 11.5906 15.7725 12.7111L23.2888 20.2274C24.4094 21.3464 24.4094 23.1703 23.2889 24.2893ZM28.0603 13.0605L26.5603 14.5605C26.2678 14.853 25.8839 15 25.4998 15C25.1158 15 24.7318 14.853 24.4393 14.5605C23.8528 13.974 23.8528 13.026 24.4393 12.4395L25.9393 10.9396C26.5257 10.3531 27.4737 10.3531 28.0602 10.9396C28.6467 11.5261 28.6467 12.4741 28.0603 13.0605Z" fill="white"/>
</svg>
