<svg width="40" height="32" viewBox="0 0 40 32" fill="none" xmlns="http://www.w3.org/2000/svg">
<path d="M39.6303 12.9547L27.7331 1.05765C27.2404 0.564923 26.4415 0.564839 25.9486 1.05765L22.3794 4.62668H22.3793L19.7025 7.30356L17.0259 4.62676H17.0258V4.62668L13.4564 1.05756C12.9636 0.564839 12.1647 0.564755 11.6719 1.05756L0.369648 12.3599C0.132919 12.5966 0 12.9176 0 13.2523C0 13.587 0.133003 13.9079 0.369648 14.1446L3.93885 17.7137C4.18525 17.9601 4.50821 18.0833 4.83109 18.0833C5.01717 18.0833 5.20275 18.041 5.3742 17.9592L17.6202 30.2053C17.6204 30.2054 17.6205 30.2056 17.6205 30.2058C18.3586 30.9437 19.328 31.3127 20.2974 31.3127C21.2668 31.3127 22.2363 30.9437 22.9742 30.2057C23.64 29.54 24.0268 28.67 24.077 27.7371C24.9751 27.6876 25.8588 27.321 26.5433 26.6366C27.2285 25.9514 27.5949 25.0669 27.6441 24.1682C28.5429 24.119 29.4275 23.7525 30.1125 23.0675C30.113 23.0669 30.1135 23.0664 30.1141 23.0658L34.6261 18.5538C34.7943 18.634 34.979 18.6781 35.1689 18.6781C35.5036 18.6781 35.8246 18.5451 36.0611 18.3085L39.6303 14.7393C39.867 14.5027 40 14.1818 40 13.8471C40 13.5123 39.867 13.1913 39.6303 12.9547ZM3.04644 13.2523L12.5643 3.73444L14.349 5.519L13.9733 5.89471L4.83109 15.0368L3.04644 13.2523ZM24.7589 24.852C24.2671 25.3437 23.4669 25.3439 22.9748 24.8526C22.9746 24.8524 22.9745 24.8522 22.9742 24.8519L21.1896 23.0674C20.6968 22.5746 19.8977 22.5746 19.405 23.0674C18.9123 23.5602 18.9123 24.3591 19.4051 24.8519L21.1894 26.6361C21.1895 26.6362 21.1897 26.6364 21.1897 26.6366C21.1899 26.6367 21.1901 26.6369 21.1903 26.6371C21.4282 26.8753 21.5593 27.192 21.5593 27.5287C21.5593 27.8657 21.4281 28.1826 21.1897 28.4211C20.6977 28.9131 19.8971 28.9131 19.405 28.421C19.4049 28.421 19.4048 28.4208 19.4046 28.4207L7.21058 16.2264L16.1335 7.30356L17.918 9.08812L15.2412 11.765C15.241 11.7652 15.2407 11.7656 15.2405 11.7658C13.7653 13.2419 13.7655 15.6429 15.2411 17.1188C15.9792 17.8568 16.9485 18.2258 17.918 18.2258C18.8874 18.2258 19.8568 17.8569 20.5947 17.1189C20.5947 17.1189 20.5947 17.1188 20.5948 17.1188L23.2717 14.442L27.7325 18.9028C27.7327 18.9031 27.7329 18.9031 27.733 18.9034L28.3291 19.4993C28.5667 19.7376 28.6976 20.0539 28.6976 20.3904C28.6976 20.7271 28.5666 21.0436 28.3288 21.2819L28.328 21.2827C28.3279 21.2828 28.3277 21.283 28.3276 21.2831C27.8358 21.7744 27.0362 21.7745 26.5442 21.2836C26.5438 21.2831 26.5434 21.2827 26.543 21.2823L24.7588 19.4982C24.266 19.0054 23.4669 19.0054 22.9742 19.4983C22.4815 19.9911 22.4815 20.79 22.9742 21.2828L24.7577 23.0662C24.7581 23.0666 24.7584 23.067 24.7589 23.0675C25.2508 23.5594 25.2508 24.36 24.7589 24.852ZM31.0049 18.6059L30.113 17.714C30.1128 17.7139 30.1127 17.7137 30.1125 17.7136C30.1125 17.7135 30.1124 17.7135 30.1124 17.7134L29.5177 17.1187C29.5177 17.1186 29.5176 17.1186 29.5175 17.1185L24.164 11.765C23.9274 11.5284 23.6064 11.3954 23.2718 11.3954C22.9371 11.3954 22.6161 11.5284 22.3795 11.765L18.8104 15.3341C18.3184 15.8262 17.5177 15.8262 17.0258 15.3342C16.5339 14.8422 16.5338 14.0418 17.0257 13.5497C17.0258 13.5496 17.0258 13.5496 17.0259 13.5496L20.594 9.98136C20.5943 9.98111 20.5946 9.98086 20.595 9.98052C20.5953 9.98019 20.5956 9.97985 20.5959 9.97951L23.2719 7.30347L32.7896 16.8213L31.0049 18.6059ZM35.1689 15.6316L25.0562 5.51892L26.8408 3.73444L36.9534 13.847L35.1689 15.6316Z" fill="white"/>
</svg>
