<svg width="36" height="40" viewBox="0 0 36 40" fill="none" xmlns="http://www.w3.org/2000/svg">
<path d="M20.1073 6.12245C20.1073 6.79869 19.559 7.34694 18.8828 7.34694H17.1177C16.4415 7.34694 15.8932 6.79869 15.8932 6.12245C15.8932 5.4462 16.4415 4.89796 17.1177 4.89796H18.8828C19.559 4.89796 20.1073 5.4462 20.1073 6.12245ZM35.5513 31.7425V32.7473C35.5513 36.7464 32.5606 40 28.8846 40H7.11591C3.43983 40 0.449219 36.7464 0.449219 32.7473V31.7425C0.449219 27.7929 3.36652 24.5705 6.97983 24.4913V3.67347C6.97983 1.64792 8.62775 0 10.6533 0H25.3472C27.3727 0 29.0206 1.64792 29.0206 3.67347V24.4913C32.634 24.5705 35.5513 27.7929 35.5513 31.7425ZM9.42881 15.5102H21.2655H26.5717V3.67347C26.5717 2.99829 26.0224 2.44898 25.3472 2.44898H10.6533C9.97812 2.44898 9.42881 2.99829 9.42881 3.67347V15.5102ZM26.5717 26.9388V23.6735H22.49V26.9388H26.5717ZM22.49 29.3878V32.6531H25.3472C26.0224 32.6531 26.5717 32.1038 26.5717 31.4286V29.3878H22.49ZM26.5717 21.2245V17.9592H22.49V21.2245H26.5717ZM20.0411 26.9388V23.6735H15.9594V26.9388H20.0411ZM15.9594 29.3878V32.6531H20.0411V29.3878H15.9594ZM20.0411 21.2245V17.9592H15.9594V21.2245H20.0411ZM9.42881 21.2245H13.5104V17.9592H9.42881V21.2245ZM9.42881 26.9388H13.5104V23.6735H9.42881V26.9388ZM9.42881 31.4286C9.42881 32.1038 9.97812 32.6531 10.6533 32.6531H13.5104V29.3878H9.42881V31.4286ZM33.1023 31.7425C33.1023 29.1456 31.2835 27.0233 29.0206 26.9412V31.4286C29.0206 33.4541 27.3727 35.102 25.3472 35.102H10.6533C8.62775 35.102 6.97983 33.4541 6.97983 31.4286V26.9412C4.71697 27.0233 2.8982 29.1456 2.8982 31.7425V32.7473C2.8982 35.3961 4.79028 37.551 7.11591 37.551H28.8847C31.2102 37.551 33.1023 35.3961 33.1023 32.7473V31.7425Z" fill="white"/>
</svg>
