<svg width="52" height="52" viewBox="0 0 52 52" fill="none" xmlns="http://www.w3.org/2000/svg">
<path d="M51.5195 22.0411L36.0531 6.57495C35.4125 5.93441 34.3739 5.9343 33.7331 6.57495L29.0932 11.2147H29.0931L25.6132 14.6946L22.1336 11.2148H22.1335V11.2147L17.4933 6.57484C16.8527 5.9343 15.8141 5.93419 15.1734 6.57484L0.480543 21.2679C0.172794 21.5756 0 21.9929 0 22.4279C0 22.8631 0.172904 23.2803 0.480543 23.588L5.1205 28.2278C5.44083 28.5481 5.86067 28.7082 6.28041 28.7082C6.52232 28.7082 6.76358 28.6533 6.98646 28.5469L22.9063 44.467C22.9065 44.4671 22.9066 44.4673 22.9067 44.4675C23.8662 45.4268 25.1265 45.9065 26.3867 45.9065C27.6468 45.9065 28.9072 45.4268 29.8665 44.4674C30.732 43.602 31.2348 42.471 31.3001 41.2582C32.4676 41.1938 33.6164 40.7173 34.5063 39.8275C35.397 38.9369 35.8734 37.787 35.9374 36.6186C37.1058 36.5547 38.2558 36.0782 39.1463 35.1877C39.147 35.187 39.1476 35.1863 39.1484 35.1855L45.014 29.3199C45.2326 29.4242 45.4728 29.4816 45.7196 29.4816C46.1546 29.4816 46.572 29.3086 46.8795 29.0011L51.5195 24.3612C51.8271 24.0535 52 23.6363 52 23.2012C52 22.766 51.8271 22.3488 51.5195 22.0411ZM3.96038 22.4279L16.3335 10.0548L18.6537 12.3747L18.1653 12.8631L6.28041 24.7479L3.96038 22.4279ZM32.1865 37.5076C31.5472 38.1469 30.507 38.1471 29.8673 37.5084C29.867 37.5082 29.8668 37.5078 29.8665 37.5075L27.5465 35.1876C26.9058 34.547 25.8671 34.547 25.2265 35.1876C24.586 35.8282 24.586 36.8669 25.2266 37.5075L27.5462 39.827C27.5463 39.8271 27.5466 39.8273 27.5467 39.8275C27.5469 39.8278 27.5471 39.828 27.5473 39.8282C27.8567 40.1379 28.0271 40.5496 28.0271 40.9873C28.0271 41.4255 27.8565 41.8374 27.5466 42.1475C26.907 42.787 25.8662 42.787 25.2265 42.1474C25.2264 42.1473 25.2262 42.147 25.226 42.1469L9.37376 26.2944L20.9736 14.6946L23.2934 17.0146L19.8136 20.4945C19.8133 20.4948 19.8129 20.4953 19.8126 20.4956C17.8949 22.4145 17.8951 25.5358 19.8135 27.4544C20.7729 28.4138 22.0331 28.8936 23.2934 28.8936C24.5536 28.8936 25.8138 28.4139 26.7731 27.4546C26.7731 27.4546 26.7731 27.4545 26.7733 27.4545L30.2532 23.9746L36.0523 29.7737C36.0525 29.774 36.0527 29.7741 36.053 29.7744L36.8278 30.5492C37.1367 30.8589 37.3069 31.2701 37.3069 31.7075C37.3069 32.1452 37.1365 32.5567 36.8275 32.8665L36.8264 32.8676C36.8263 32.8677 36.826 32.8679 36.8259 32.8681C36.1865 33.5068 35.1471 33.5069 34.5074 32.8686C34.5069 32.8681 34.5064 32.8675 34.5059 32.867L32.1864 30.5476C31.5458 29.9071 30.507 29.9071 29.8665 30.5477C29.2259 31.1884 29.2259 32.227 29.8665 32.8677L32.185 35.1861C32.1855 35.1866 32.186 35.1872 32.1865 35.1877C32.8261 35.8273 32.8261 36.868 32.1865 37.5076ZM40.3063 29.3877L39.1468 28.2282C39.1466 28.2281 39.1465 28.2278 39.1463 28.2277C39.1462 28.2276 39.1461 28.2276 39.1461 28.2274L38.373 27.4543C38.373 27.4542 38.3729 27.4542 38.3728 27.4541L31.4132 20.4945C31.1056 20.1869 30.6884 20.0141 30.2533 20.0141C29.8183 20.0141 29.4009 20.1869 29.0934 20.4945L24.4535 25.1344C23.8139 25.7741 22.7731 25.774 22.1335 25.1345C21.4941 24.4949 21.494 23.4543 22.1334 22.8146C22.1335 22.8145 22.1335 22.8145 22.1336 22.8144L26.7722 18.1758C26.7726 18.1755 26.773 18.1751 26.7735 18.1747C26.7739 18.1742 26.7742 18.1738 26.7747 18.1734L30.2534 14.6945L42.6265 27.0677L40.3063 29.3877ZM45.7196 25.5211L32.5731 12.3746L34.893 10.0548L48.0394 23.2011L45.7196 25.5211Z" fill="#EC0606"/>
</svg>
