<svg width="52" height="52" viewBox="0 0 52 52" fill="none" xmlns="http://www.w3.org/2000/svg">
<path d="M45.4999 8.66666H38.9999V6.49999C38.9999 5.92536 38.7716 5.37426 38.3653 4.96793C37.959 4.5616 37.4079 4.33333 36.8333 4.33333H15.1666C14.5919 4.33333 14.0409 4.5616 13.6345 4.96793C13.2282 5.37426 12.9999 5.92536 12.9999 6.49999V8.66666H6.49992C5.92528 8.66666 5.37418 8.89494 4.96785 9.30126C4.56153 9.70759 4.33325 10.2587 4.33325 10.8333V17.3333C4.33325 26.6717 8.23108 32.305 14.7744 32.526C15.7323 34.1722 17.0402 35.5879 18.6056 36.6729C20.1709 37.7579 21.9556 38.4858 23.8333 38.805V43.3333H19.4999V47.6667H32.4999V43.3333H28.1666V38.805C30.0438 38.4845 31.8279 37.7561 33.3931 36.6712C34.9583 35.5863 36.2665 34.1714 37.2254 32.526C43.7688 32.305 47.6666 26.6717 47.6666 17.3333V10.8333C47.6666 10.2587 47.4383 9.70759 47.032 9.30126C46.6257 8.89494 46.0746 8.66666 45.4999 8.66666V8.66666ZM8.66659 17.3333V13H12.9999V27.7983C9.13459 26.169 8.66659 20.1478 8.66659 17.3333ZM25.9999 34.6667C21.2203 34.6667 17.3333 30.7797 17.3333 26V8.66666H34.6666V26C34.6666 30.7797 30.7796 34.6667 25.9999 34.6667ZM38.9999 27.7983V13H43.3333V17.3333C43.3333 20.1478 42.8653 26.169 38.9999 27.7983Z" fill="#EC0606"/>
</svg>
