<svg width="52" height="52" viewBox="0 0 52 52" fill="none" xmlns="http://www.w3.org/2000/svg">
<g clip-path="url(#clip0_3_588)">
<path d="M50.9878 13.7879L26.8187 1.70346C26.3034 1.44557 25.6966 1.44557 25.1811 1.70346L1.01216 13.7879C0.391838 14.0982 0 14.732 0 15.4257V48.6581C0 49.6692 0.819744 50.4891 1.83103 50.4891H7.87336C8.88447 50.4891 9.70439 49.6693 9.70439 48.6581V20.2778H42.296V48.6581C42.296 49.6692 43.1157 50.4891 44.127 50.4891H50.1693C51.1804 50.4891 52.0004 49.6693 52.0004 48.6581V15.4257C52 14.732 51.6082 14.0982 50.9878 13.7879ZM48.3381 46.827H45.9578V18.4468C45.9578 17.4357 45.1381 16.6157 44.1268 16.6157H7.87319C6.86207 16.6157 6.04216 17.4355 6.04216 18.4468V46.827H3.66189V16.5573L26 5.38829L48.3381 16.5573V46.827Z" fill="#EC0606"/>
<path d="M38.0839 23.207H25.9994C25.2915 23.207 24.7178 23.7808 24.7178 24.4886V35.2915H13.9149C13.2071 35.2915 12.6333 35.8653 12.6333 36.5731V48.6576C12.6333 49.3655 13.2071 49.9392 13.9149 49.9392H38.0839C38.7917 49.9392 39.3655 49.3655 39.3655 48.6576V24.4888C39.3657 23.7808 38.7917 23.207 38.0839 23.207ZM27.281 39.6677L30.2289 42.6156L27.281 45.5635V39.6677ZM24.7178 45.5634L21.7699 42.6155L24.7178 39.6676V45.5634ZM29.0938 37.8549H34.9894L32.0416 40.8028L29.0938 37.8549ZM29.0938 35.2915L32.0417 32.3436L34.9896 35.2915H29.0938ZM36.8023 33.4789L33.8546 30.531L36.8023 27.5831V33.4789ZM32.0417 28.7183L29.0938 25.7704H34.9894L32.0417 28.7183ZM30.2289 30.531L27.281 33.4789V27.5833L30.2289 30.531ZM19.9571 40.8028L17.0092 37.8549H22.9048L19.9571 40.8028ZM18.1444 42.6155L15.1965 45.5634V39.6677L18.1444 42.6155ZM19.9571 44.4283L22.905 47.3762H17.0094L19.9571 44.4283ZM32.0416 44.4283L34.9894 47.3762H29.0938L32.0416 44.4283ZM33.8544 42.6155L36.8023 39.6676V45.5632L33.8544 42.6155Z" fill="#EC0606"/>
</g>
<defs>
<clipPath id="clip0_3_588">
<rect width="52" height="52" fill="white"/>
</clipPath>
</defs>
</svg>
