<svg width="52" height="52" viewBox="0 0 52 52" fill="none" xmlns="http://www.w3.org/2000/svg">
<path d="M25.9999 4.33333C14.0529 4.33333 4.33325 14.053 4.33325 26C4.33325 37.947 14.0529 47.6667 25.9999 47.6667C37.9469 47.6667 47.6666 37.947 47.6666 26C47.6666 14.053 37.9469 4.33333 25.9999 4.33333ZM25.9999 43.3333C16.4428 43.3333 8.66659 35.5572 8.66659 26C8.66659 16.4428 16.4428 8.66667 25.9999 8.66667C35.5571 8.66667 43.3333 16.4428 43.3333 26C43.3333 35.5572 35.5571 43.3333 25.9999 43.3333Z" fill="#EC0606"/>
<path d="M21.6645 29.4385L16.6834 24.466L13.624 27.534L21.6689 35.5615L36.1985 21.0318L33.1349 17.9682L21.6645 29.4385Z" fill="#EC0606"/>
</svg>
