<svg width="301" height="66" viewBox="0 0 301 66" fill="none" xmlns="http://www.w3.org/2000/svg">
<path d="M295.571 12.4439L295.578 12.4404H295.569L295.571 12.4439Z" fill="#EC0606"/>
<path d="M295.164 7.77524C295.533 7.36471 295.758 6.81802 295.758 6.21881C295.758 4.93123 294.718 3.88762 293.434 3.88762H290.591V11.1445H291.624V8.55276H293.29L294.809 11.1445H296.008L294.372 8.35371C294.683 8.21272 294.947 8.01783 295.163 7.77731L295.164 7.77524ZM293.433 7.51606H291.624V4.92432H293.433C294.147 4.92432 294.725 5.50418 294.725 6.22019C294.725 6.9362 294.147 7.51606 293.433 7.51606Z" fill="#EC0606"/>
<path d="M298.397 2.27728C296.994 0.870136 295.057 0 292.916 0C288.636 0 285.166 3.48123 285.166 7.77524C285.166 9.92259 286.033 11.866 287.436 13.2732C288.838 14.6803 290.776 15.5505 292.916 15.5505C297.197 15.5505 300.667 12.0692 300.667 7.77524C300.667 5.62789 299.799 3.68443 298.397 2.27728ZM292.916 14.5138C289.212 14.5138 286.199 11.4908 286.199 7.77524C286.199 4.05971 289.212 1.0367 292.916 1.0367C296.62 1.0367 299.633 4.05971 299.633 7.77524C299.633 11.4908 296.62 14.5138 292.916 14.5138Z" fill="#EC0606"/>
<path fill-rule="evenodd" clip-rule="evenodd" d="M37.7996 0.335406C20.7294 3.14307 6.14919 14.102 1.46914 27.6573C-0.120882 32.2462 -0.450885 38.1936 0.629127 42.6919C3.56916 55.0396 13.6793 63.2512 28.6795 65.5457C36.6896 66.7533 46.7697 65.5155 54.8998 62.2852L58.0198 61.0474L57.2998 60.4738C56.9398 60.1719 56.3998 59.9907 56.1598 60.0813C55.9198 60.1719 54.1198 60.7757 52.2297 61.4398C46.0497 63.6135 43.4396 64.006 35.7295 64.0362C30.2695 64.0362 28.4995 63.9154 26.4894 63.4928C19.0793 61.8323 13.1993 58.7831 8.72922 54.2546C3.74916 49.2129 1.52914 43.3561 1.91914 36.2614C2.09914 33.2424 2.96916 28.8045 3.47916 28.3215C3.59916 28.2007 3.62916 28.3819 3.53916 28.7139C2.63915 31.9141 2.45915 37.8917 3.17916 41.3937C5.45918 52.4131 14.8193 60.1115 28.9795 62.5267C33.1795 63.2512 40.2296 63.1909 44.7296 62.4059C48.0597 61.8323 52.8897 60.4134 54.5098 59.5681L55.3198 59.1454L54.2698 58.3605L53.2197 57.5453L50.7897 58.451C41.3096 61.9229 29.1295 61.5606 19.9794 57.5152C16.1993 55.8547 13.7693 54.1943 10.9792 51.3866C8.27922 48.6393 6.9592 46.5562 5.81919 43.2957C5.12918 41.3635 5.03918 40.5786 5.00918 37.1671C4.97918 33.816 5.51919 29.4385 5.87919 29.831C5.93919 29.8914 5.87919 31.0688 5.75919 32.4273C4.58917 43.9297 11.4893 53.4093 23.9094 57.334C28.6495 58.8435 31.0195 59.1756 36.6296 59.1756C42.2396 59.1756 45.0597 58.7831 49.5597 57.3642L51.9297 56.6095L50.8797 55.7038L49.8597 54.7981L48.2697 55.2811C42.3596 57.0321 33.3595 57.1227 26.7294 55.4321C21.5994 54.1037 17.9393 52.081 14.5793 48.6695C11.9093 45.9524 10.4392 43.4768 9.26923 39.7333C8.27922 36.5331 8.27922 30.4046 9.26923 26.9629C12.8693 14.3435 24.4194 4.62238 39.6296 1.36186C42.1796 0.818445 43.7996 0.667495 48.1197 0.667495C54.9898 0.637305 53.4898 0.184456 45.9297 0.0335061C42.0596 -0.0570637 39.5996 0.0335061 37.7996 0.335406Z" fill="#EC0606"/>
<path fill-rule="evenodd" clip-rule="evenodd" d="M49.2298 3.71669C37.3496 4.98467 25.3495 11.1132 19.2894 19.023C17.6394 21.1967 15.3294 25.6648 15.3294 26.6912V27.446L24.1795 27.2045C32.6696 26.9931 33.0296 27.0233 33.0296 27.5667C32.9996 27.8686 31.4696 33.1217 29.5795 39.2804C27.1195 47.311 26.2795 50.5111 26.5195 50.662C26.9995 50.9639 31.6196 52.0508 33.4796 52.2923L35.0096 52.4734L36.8996 45.9524C37.9796 42.3598 38.9097 39.4314 38.9997 39.4314C39.0897 39.4314 39.4197 39.8239 39.7197 40.3069C40.4097 41.5145 42.5997 44.2014 45.2397 47.16C49.3198 51.7489 56.2799 57.5453 61.9799 61.138L64.53 62.7682L66.63 61.3493C67.8 60.5945 68.73 59.87 68.73 59.719C68.73 59.5681 67.95 58.9039 67.05 58.1492C64.2 55.8245 55.4998 46.677 53.0998 43.507C51.0598 40.7899 48.3298 36.5332 48.3298 36.0199C48.3298 35.9294 52.2898 32.8198 57.1199 29.1366C61.9499 25.4534 66.27 22.1024 66.72 21.7099L67.59 21.0155H57.1499L49.0798 27.0233C44.6097 30.3442 40.9497 33.0009 40.8897 32.9405C40.8297 32.8802 41.5197 30.2536 42.4497 27.1139C43.3797 23.9741 44.1297 21.3174 44.1297 21.2269C44.1297 21.1363 41.4597 20.9853 38.2196 20.9551L32.2796 20.8646L34.2296 19.2645C36.6896 17.272 42.5997 14.3134 45.9297 13.4077C49.3198 12.5322 56.4299 12.4416 59.4299 13.2567C65.49 14.887 70.08 18.9626 71.73 24.0949C72.03 25.1214 72.1801 25.2421 73.1401 25.2421C74.1901 25.2421 74.1901 25.2421 74.0101 24.0949C73.8901 23.4911 73.2001 21.7099 72.4501 20.2004C70.08 15.2794 65.88 11.9585 60.1199 10.4189C57.0299 9.57354 51.0898 9.51316 47.3698 10.2377C41.7297 11.3547 35.9396 13.8605 31.8296 16.9701L29.5795 18.6607L30.9296 17.2418C36.2996 11.5963 46.2297 7.97347 54.9298 8.45651C61.9199 8.81879 67.62 11.4755 71.46 16.0946C72.8401 17.755 74.8201 21.7099 75.3601 23.793C75.6901 25.1515 75.7501 25.2421 76.7101 25.2421C77.9401 25.2421 77.9401 25.0912 77.1001 22.3439C74.7601 14.736 69.3 9.45278 61.5899 7.36967C58.3499 6.49416 51.8398 6.28283 47.8498 6.91682C40.1397 8.15159 32.6396 11.4725 27.2095 16.0342C25.6495 17.3324 25.3195 17.5437 25.9495 16.7889C27.8695 14.4643 31.7096 11.5661 35.2796 9.78487C45.7197 4.50163 58.0499 4.01859 67.23 8.57727C69.57 9.72449 70.53 10.4189 72.66 12.5623C74.0701 13.9813 75.6601 15.9134 76.2001 16.8493C77.2501 18.7513 78.4501 22.042 78.7801 23.9741C78.9601 25.1817 79.0501 25.2421 80.0101 25.2421C81.0602 25.2421 81.0601 25.2421 80.8501 24.0949C79.5601 16.8493 75.3001 10.7208 69.12 7.24891C64.1099 4.41106 56.0999 2.99213 49.2298 3.71669Z" fill="#EC0606"/>
<path fill-rule="evenodd" clip-rule="evenodd" d="M98.5205 21.5892C95.9105 22.5552 93.2104 24.6685 91.7404 26.9026C91.2304 27.6875 89.7904 32.0349 87.6903 39.1899L84.4203 50.2998H93.1804C101.071 50.2998 102.091 50.2394 103.621 49.7262C108.331 48.0959 111.931 44.0505 112.861 39.371C113.401 36.6841 113.011 35.0237 111.511 33.5142C109.771 31.733 108.031 31.2801 103.081 31.2801H99.1205L98.3405 33.9368C98.0175 34.928 97.7471 35.9358 97.5305 36.9558C97.5305 37.1974 98.4305 37.3181 100.381 37.3181C103.021 37.3181 103.321 37.3785 103.981 38.0729C105.481 39.5522 104.641 42.4202 102.331 43.7788C101.461 44.3222 100.65 44.4429 97.3205 44.5033C94.5004 44.5939 93.3304 44.5335 93.3304 44.292C93.3304 43.3863 97.6205 29.5291 98.1005 28.8649C99.3305 27.1743 100.26 26.9026 105.661 26.812L110.641 26.6913L111.451 24.0647C111.871 22.6156 112.231 21.3174 112.231 21.2269C112.231 21.1363 109.501 21.0155 106.171 21.0155C101.011 21.0457 99.8405 21.1333 98.5205 21.5892Z" fill="#EC0606"/>
<path fill-rule="evenodd" clip-rule="evenodd" d="M210.841 21.2269C210.751 21.3778 208.831 27.7781 206.581 35.5067C204.331 43.2353 202.381 49.7262 202.321 49.9073C202.201 50.2092 203.041 50.2998 205.861 50.2998H209.581L212.851 39.1899C214.621 33.0915 216.211 27.7781 216.361 27.3856C216.631 26.6611 216.691 26.6611 219.631 26.8422C223.981 27.0837 225.331 28.0196 225.331 30.9178C225.331 34.6916 222.481 37.2275 217.741 37.5898L215.341 37.771L214.651 40.005C214.291 41.2428 213.901 42.5712 213.781 42.9938L213.601 43.7486L217.291 43.5674C221.641 43.3561 223.351 42.9033 225.932 41.2126C228.583 39.5175 230.737 37.1414 232.172 34.3293C233.192 32.216 233.282 31.8839 233.282 29.348C233.282 27.0233 233.162 26.3894 232.532 25.1214C231.75 23.5243 230.417 22.2686 228.782 21.5892C227.702 21.0759 226.652 21.0155 219.271 21.0155C214.711 21.0155 210.901 21.1061 210.841 21.2269Z" fill="#EC0606"/>
<path fill-rule="evenodd" clip-rule="evenodd" d="M246.032 21.5891C242.312 22.7666 238.322 26.2988 236.492 30.0423C235.472 32.1556 235.382 32.4877 235.382 35.0237C235.382 37.3483 235.502 37.9823 236.132 39.2201C236.588 40.1073 237.186 40.913 237.902 41.6051C239.612 43.1448 240.722 43.4165 244.682 43.4768L248.282 43.507L248.942 41.4541C249.302 40.3371 249.692 39.0087 249.782 38.5257C249.992 37.62 249.992 37.62 248.522 37.62C246.392 37.62 244.982 37.1068 244.082 36.0501C243.362 35.1746 243.272 34.9029 243.392 33.2425C243.602 30.2235 245.732 27.7781 248.792 27.0535C250.742 26.6007 255.422 26.6611 255.242 27.1139C255.182 27.3252 253.652 32.4575 251.882 38.5257C250.112 44.5939 248.612 49.696 248.522 49.9073C248.402 50.2092 249.212 50.2998 252.392 50.2998H256.442L258.782 42.3598C260.072 38.0125 261.632 32.7594 262.232 30.6763L263.372 26.9026H266.522C270.122 26.9026 270.932 27.2649 271.922 29.2574C272.912 31.2499 271.892 34.1783 269.492 36.0199C267.932 37.1973 266.582 37.62 264.122 37.62H262.262L261.512 40.156C260.402 43.8089 260.312 43.658 263.072 43.658C266.612 43.658 269.042 43.1448 271.532 41.9372C274.472 40.488 277.562 37.4087 279.032 34.4501C280.022 32.4575 280.082 32.1556 280.082 29.3178C280.082 25.8459 279.602 24.5478 277.652 22.8269C275.552 20.9853 275.822 21.0155 261.122 21.0457C249.122 21.0457 247.502 21.1061 246.032 21.5891Z" fill="#EC0606"/>
<path fill-rule="evenodd" clip-rule="evenodd" d="M72.0597 28.0196C68.8796 28.2913 65.9696 29.8008 63.1796 32.6085C60.2395 35.5973 59.0695 38.0728 58.8895 41.5749C58.7395 44.7146 59.4295 46.677 61.2896 48.3676C63.1496 50.0582 64.0496 50.2998 68.2196 50.2998H71.9097L72.7197 47.6129C73.1697 46.1034 73.5297 44.8354 73.5297 44.775C73.5297 44.7146 72.5997 44.5637 71.4297 44.5033C68.2496 44.2618 66.8096 42.9938 66.8096 40.3673C66.8396 37.62 68.9396 35.0236 71.8497 34.1481C73.7997 33.5443 78.6297 33.5141 78.6297 34.1179C78.6297 34.3293 77.6097 37.9521 76.3797 42.1787C75.1497 46.4053 74.1297 49.9375 74.1297 50.0582C74.1297 50.179 75.6897 50.2998 77.5797 50.2998H80.9998L81.6598 48.0959C82.0198 46.9185 83.4898 41.9069 84.9298 37.0162L87.5398 28.1101L86.3098 28.0498C82.9498 27.8384 74.0097 27.8384 72.0597 28.0196Z" fill="#EC0606"/>
<path fill-rule="evenodd" clip-rule="evenodd" d="M134.581 27.9592C126.121 28.1403 126.031 28.1705 122.401 30.1329C120.091 31.3707 116.851 34.3897 115.591 36.4728C114.301 38.6464 113.611 41.907 114.031 43.8391C114.481 45.8316 115.021 46.7373 116.551 48.0959C118.831 50.1186 119.881 50.2998 128.911 50.2998H136.801L137.551 47.7638C137.971 46.3751 138.331 45.0769 138.331 44.9259C138.331 44.7146 135.961 44.5637 131.521 44.5033C125.401 44.4127 124.591 44.3523 123.841 43.8391C120.391 41.4843 122.371 35.5369 127.051 34.1481C128.491 33.7255 134.131 33.484 134.131 33.8764C134.131 33.967 132.421 35.718 130.321 37.7709L126.481 41.5145L130.411 41.5447H134.371L138.001 37.7709L141.601 33.967L142.381 31.3405C142.801 29.8914 143.221 28.563 143.281 28.3517C143.461 27.8384 142.891 27.8082 134.581 27.9592Z" fill="#EC0606"/>
<path fill-rule="evenodd" clip-rule="evenodd" d="M149.791 28.7441C147.961 29.6498 145.231 32.065 144.301 33.5745C143.761 34.4802 139.231 49.1224 139.231 49.9979C139.231 50.179 140.521 50.2998 142.651 50.2998C145.681 50.2998 146.101 50.2394 146.251 49.7563C146.341 49.4846 147.211 46.4656 148.201 43.0542C149.191 39.6427 150.241 36.4426 150.511 35.9294C151.351 34.2689 152.821 33.6953 156.301 33.6953C158.791 33.6953 159.331 33.7859 159.331 34.1481C159.331 34.3897 158.311 38.0125 157.081 42.2089C155.851 46.4053 154.831 49.9375 154.831 50.0582C154.831 50.179 156.361 50.2998 158.251 50.2998H161.671L162.151 48.8506C162.391 48.0657 163.831 43.2353 165.331 38.0728C166.831 32.9104 168.121 28.5328 168.181 28.3215C168.271 28.0498 166.471 27.9592 159.841 27.9592H151.351L149.791 28.7441Z" fill="#EC0606"/>
<path fill-rule="evenodd" clip-rule="evenodd" d="M167.641 38.888C165.871 44.9259 164.431 49.9375 164.431 50.0582C164.431 50.179 168.331 50.2998 173.071 50.2998C180.871 50.2998 181.921 50.2394 183.421 49.7262C185.582 48.9945 187.534 47.7474 189.112 46.0914C190.69 44.4353 191.846 42.4196 192.481 40.2163C193.531 36.5633 192.481 33.5142 189.721 32.1858C188.431 31.5518 187.741 31.4612 183.601 31.3405L178.921 31.2197L178.141 34.0576C177.691 35.6274 177.331 36.986 177.331 37.1068C177.331 37.2275 178.621 37.3181 180.181 37.3181C182.821 37.3181 183.121 37.3785 183.781 38.0728C185.281 39.5521 184.441 42.4202 182.131 43.7787C181.261 44.3222 180.451 44.4429 177.121 44.5033C174.901 44.5637 173.131 44.5033 173.131 44.3523C173.131 44.1108 177.421 29.2876 177.781 28.3215C177.871 28.0498 177.091 27.9592 174.361 27.9592H170.851L167.641 38.888Z" fill="#EC0606"/>
<path fill-rule="evenodd" clip-rule="evenodd" d="M192.912 46.0227C192.552 47.1699 192.192 48.4379 192.102 48.8908L191.892 49.7361H198.792L199.392 47.6832C199.752 46.5661 200.112 45.2982 200.202 44.8151L200.412 44H193.512L192.912 46.0227Z" fill="#EC0606"/>
</svg>
