<svg width="28" height="28" viewBox="0 0 28 28" fill="none" xmlns="http://www.w3.org/2000/svg">
<path d="M0 4.375C0 1.95875 1.95875 0 4.375 0H23.625C26.0412 0 28 1.95875 28 4.375V23.625C28 26.0412 26.0412 28 23.625 28H4.375C1.95875 28 0 26.0412 0 23.625V4.375Z" fill="#4D515C"/>
<path d="M14.7274 19.0125C9.54038 19.0125 6.58288 15.4635 6.46155 9.54854H9.07021C9.15363 13.8862 11.0646 15.7214 12.5813 16.1005V9.54854H15.0307V13.2871C16.5246 13.1279 18.102 11.4216 18.6328 9.54095H21.0746C20.8755 10.5145 20.4778 11.4365 19.9063 12.2494C19.3348 13.0622 18.6018 13.7485 17.7531 14.2654C18.7002 14.7368 19.5367 15.4036 20.2072 16.2219C20.8778 17.0401 21.3673 17.9913 21.6434 19.0125H18.9513C18.375 17.2153 16.9341 15.82 15.0307 15.6304V19.0125H14.735H14.7274Z" fill="white"/>
</svg>
