<svg width="28" height="28" viewBox="0 0 28 28" fill="none" xmlns="http://www.w3.org/2000/svg">
<path d="M0 4.375C0 1.95875 1.95875 0 4.375 0H23.625C26.0412 0 28 1.95875 28 4.375V23.625C28 26.0412 26.0412 28 23.625 28H4.375C1.95875 28 0 26.0412 0 23.625V4.375Z" fill="#4D515C"/>
<path d="M15.35 15.35C14.25 16.485 14.17 17.9 14.075 21C16.965 21 18.96 20.99 19.99 19.99C20.99 18.96 21 16.87 21 14.075C17.9 14.175 16.485 14.25 15.35 15.35ZM7 14.075C7 16.87 7.01 18.96 8.01 19.99C9.04 20.99 11.035 21 13.925 21C13.825 17.9 13.75 16.485 12.65 15.35C11.515 14.25 10.1 14.17 7 14.075ZM13.925 7C11.04 7 9.04 7.01 8.01 8.01C7.01 9.04 7 11.13 7 13.925C10.1 13.825 11.515 13.75 12.65 12.65C13.75 11.515 13.83 10.1 13.925 7ZM15.35 12.65C14.25 11.515 14.17 10.1 14.075 7C16.965 7 18.96 7.01 19.99 8.01C20.99 9.04 21 11.13 21 13.925C17.9 13.825 16.485 13.75 15.35 12.65Z" fill="#2C3036"/>
<path d="M21 14.075V13.925C17.9 13.825 16.485 13.75 15.35 12.65C14.25 11.515 14.17 10.1 14.075 7H13.925C13.825 10.1 13.75 11.515 12.65 12.65C11.515 13.75 10.1 13.83 7 13.925V14.075C10.1 14.175 11.515 14.25 12.65 15.35C13.75 16.485 13.83 17.9 13.925 21H14.075C14.175 17.9 14.25 16.485 15.35 15.35C16.485 14.25 17.9 14.17 21 14.075Z" fill="white"/>
</svg>
